# xmcd
#
# Track frame offsets:
# 150
# 12237
# 26106
# 38666
# 51839
# 70514
# 89743
# 103166
# 120165
# 135189
# 150999
# 159895
# 173894
# 191858
#
# Disc length: 2784 seconds
#
#
# Revision: 0
# Processed by: cddbd v1.5.2PL0 Copyright (c) Steve Scherf et al.
# Submitted via: FreeRIP 2.53 
#
DISCID=a70ade0e
DTITLE=Jon Sarta - Honky Tonk Train Boogie
DYEAR=2006
DGENRE=Boogie Woogie
TTITLE0=Honky Tonk Train Boogie
TTITLE1=If Schroeder Played Boogie
TTITLE2=Sweet Emily Boogie
TTITLE3=R-R-Repeatin' B-B-Boogie
TTITLE4=Inchin' Down The Highway
TTITLE5=A Mighty Boogie Indeed
TTITLE6=Danielle's Reading Chair
TTITLE7=Friday's Boogie
TTITLE8="Eh, what are ya gonna do?" (Auntie Mag's Shuffle)
TTITLE9=Erica's Dancing Feet
TTITLE10=Short and Sweet Boogie
TTITLE11=Running Boogie
TTITLE12="It's a Shame" Blues
TTITLE13=End of a Long Day Blues
EXTD=
EXTT0=
EXTT1=
EXTT2=
EXTT3=
EXTT4=
EXTT5=
EXTT6=
EXTT7=
EXTT8=
EXTT9=
EXTT10=
EXTT11=
EXTT12=
EXTT13=
PLAYORDER=
